Patient4_TMGait_0pt2_03_right_21_GRF.mot
version=1
nRows=26
nColumns=19
inDegrees=no
endheader
time	F1x	F1y	F1z	M1x	M1y	M1z	F2x	F2y	F2z	M2x	M2y	M2z	EC1x	EC1y	EC1z	EC2x	EC2y	EC2z
45.02	-4.4203	728.7483	59.0774	-258.1828	-64.6967	817.1824	17.0925	134.8247	-13.3739	42.3431	9.8595	137.8903	-0.0592	0.0182	-0.0073	-0.0462	0.0165	0.9585
45.0405	-3.5557	762.9634	64.0751	-269.9822	-69.4766	851.9315	11.6539	117.3751	-11.3809	37.0096	9.2046	120.0455	-0.0592	0.0182	-0.0073	-0.0462	0.0165	0.9585
45.061	-2.5359	798.5093	69.52	-282.2329	-74.6016	887.6818	6.424	98.485	-9.3437	31.181	8.4586	100.7698	-0.0592	0.0182	-0.0073	-0.0462	0.0165	0.9585
45.0815	-1.4228	831.0244	74.869	-293.3896	-79.5218	919.8571	1.8569	79.536	-7.4035	25.2873	7.6467	81.4709	-0.0592	0.0182	-0.0073	-0.0462	0.0165	0.9585
45.102	-0.30227	856.3032	79.5965	-301.9573	-83.7142	944.085	-1.7232	61.6691	-5.6513	19.6958	6.7705	63.3046	-0.0592	0.0182	-0.0073	-0.0462	0.0165	0.9585
45.1225	0.73123	871.0471	83.2709	-306.7722	-86.7575	956.973	-4.1107	45.6825	-4.135	14.6695	5.8155	47.0688	-0.0592	0.0182	-0.0073	-0.0462	0.0165	0.9585
45.143	1.6202	873.4492	85.5765	-307.216	-88.3431	956.6914	-5.2278	32.0491	-2.8829	10.3674	4.7821	33.225	-0.0592	0.0182	-0.0073	-0.0462	0.0165	0.9585
45.1635	2.3773	863.5274	86.3219	-303.3333	-88.2747	943.3074	-5.1974	21.0054	-1.9174	6.8705	3.7231	21.9925	-0.0592	0.0182	-0.0073	-0.0462	0.0165	0.9585
45.184	3.0913	843.0903	85.4794	-295.8084	-86.5076	918.7435	-4.4308	12.6033	-1.2326	4.1977	2.7506	13.4083	-0.0592	0.0182	-0.0073	-0.0462	0.0165	0.9585
45.2045	3.9226	815.4166	83.208	-285.8392	-83.1737	886.4329	-3.3711	6.551	-0.78385	2.2578	1.9483	7.1641	-0.0592	0.0182	-0.0073	-0.0462	0.0165	0.9585
45.225	5.077	784.703	79.8299	-274.9331	-78.5617	850.7476	-2.2968	2.2763	-0.50656	0.87038	1.3259	2.6595	-0.0592	0.0182	-0.0073	-0.0462	0.0165	0.9585
45.2455	6.7376	755.2506	75.7862	-264.6156	-73.0909	816.1576	-1.3535	-0.86025	-0.33104	-0.16562	0.84597	-0.76621	-0.0592	0.0182	-0.0073	-0.0462	0.0165	0.9585
45.266	9.0111	730.7035	71.5424	-256.166	-67.2261	786.4531	-0.59001	-3.4028	-0.19094	-1.02	0.44701	-3.6548	-0.0592	0.0182	-0.0073	-0.0462	0.0165	0.9585
45.2865	11.9029	713.4961	67.5018	-250.4284	-61.3951	764.1805	0.0072234	-5.6789	-0.030417	-1.792	0.062647	-6.3145	-0.0592	0.0182	-0.0073	-0.0462	0.0165	0.9585
45.307	15.3193	704.5292	63.9768	-247.6992	-55.9591	750.3242	0.48538	-7.7048	0.19249	-2.4796	-0.36584	-8.7205	-0.0592	0.0182	-0.0073	-0.0462	0.0165	0.9585
45.3275	19.0795	703.1352	61.1722	-247.71	-51.1965	744.2775	0.90151	-9.1034	0.50435	-2.9507	-0.87855	-10.4113	-0.0592	0.0182	-0.0073	-0.0462	0.0165	0.9585
45.348	22.9304	707.2657	59.1765	-249.694	-47.2899	744.0353	1.3055	-9.0268	0.90523	-2.9171	-1.4803	-10.3965	-0.0592	0.0182	-0.0073	-0.0462	0.0165	0.9585
45.3685	26.5726	713.9055	57.9649	-252.5352	-44.3211	746.616	1.7273	-6.1095	1.3558	-1.9193	-2.1219	-7.1103	-0.0592	0.0182	-0.0073	-0.0462	0.0165	0.9585
45.389	29.7014	719.6335	57.4079	-254.9743	-42.2704	748.6256	2.1591	1.5182	1.7606	0.669	-2.677	1.5825	-0.0592	0.0182	-0.0073	-0.0462	0.0165	0.9585
45.4095	32.0535	721.1869	57.2847	-255.8155	-41.0159	746.8278	2.534	16.1164	1.9522	5.6016	-2.9201	18.2619	-0.0592	0.0182	-0.0073	-0.0462	0.0165	0.9585
45.43	33.4223	715.8184	57.3102	-254.0595	-40.3583	738.5064	2.7104	40.0377	1.6819	13.659	-2.5073	45.6133	-0.0592	0.0182	-0.0073	-0.0462	0.0165	0.9585
45.4505	33.6565	701.4222	57.1542	-248.9512	-40.0351	721.5888	2.4595	75.1715	0.61524	25.4601	-0.97087	85.7932	-0.0592	0.0182	-0.0073	-0.0462	0.0165	0.9585
45.471	32.6637	676.4969	56.4639	-239.9679	-39.7358	694.5927	1.4598	122.0495	-1.6549	41.1595	2.2592	139.4038	-0.0592	0.0182	-0.0073	-0.0462	0.0165	0.9585
45.4915	30.4459	640.2586	54.9007	-226.8557	-39.1289	656.7237	-0.7311	178.729	-5.5064	60.0726	7.7361	204.2119	-0.0592	0.0182	-0.0073	-0.0462	0.0165	0.9585
45.512	27.1634	593.1922	52.2203	-209.823	-37.9161	608.4233	-4.2563	240.4903	-10.9156	80.591	15.4271	274.7939	-0.0592	0.0182	-0.0073	-0.0462	0.0165	0.9585
45.5325	23.202	537.7316	48.3994	-189.7751	-35.9294	552.0521	-8.6456	301.9475	-17.2056	100.92	24.3569	344.9359	-0.0592	0.0182	-0.0073	-0.0462	0.0165	0.9585
